<?xml version="1.0" standalone="no"?><!DOCTYPE svg PUBLIC "-//W3C//DTD SVG 1.1//EN" "http://www.w3.org/Graphics/SVG/1.1/DTD/svg11.dtd"><svg t="1553062763548" class="icon" style="" viewBox="0 0 1024 1024" version="1.1" xmlns="http://www.w3.org/2000/svg" p-id="2995" xmlns:xlink="http://www.w3.org/1999/xlink" width="200" height="200"><defs><style type="text/css"></style></defs><path d="M446.8 68.4c-46 0-83.3 37.3-83.3 83.3v77.7c0 10.3 8.3 18.6 18.6 18.6s18.6-8.3 18.6-18.6v-77.7c0-25.4 20.6-46.1 46.1-46.1 10.3 0 18.6-8.3 18.6-18.6s-8.3-18.6-18.6-18.6z" fill="" p-id="2996"></path><path d="M374.1 155C174.7 155 13 316.7 13 516.1c0 199.4 161.7 361.1 361.1 361.1s361.1-161.7 361.1-361.1C735.1 316.7 573.5 155 374.1 155z m0 684.9c-178.8 0-323.8-145-323.8-323.8s145-323.8 323.8-323.8 323.8 145 323.8 323.8-145 323.8-323.8 323.8z" fill="" p-id="2997"></path><path d="M634.4 323.5c-59-79.6-153.6-131.3-260.3-131.3-178.8 0-323.8 145-323.8 323.8s145 323.8 323.8 323.8C580 709.5 701.9 648.1 634.4 323.5z" fill="#3FC378" p-id="2998"></path><path d="M374.1 839.9c178.8 0 323.8-145 323.8-323.8 0-72.1-23.6-138.7-63.5-192.6 67.5 324.6-54.4 386-260.3 516.4z" fill="#2B8C4A" p-id="2999"></path><path d="M382.2 155C303.3 155 264 312.5 264 516.1s39.4 361.1 118.2 361.1c78.8 0 118.2-157.5 118.2-361.1S461 155 382.2 155z m0 684.9c-44.7 0-81-145-81-323.8s36.2-323.8 81-323.8c44.7 0 81 145 81 323.8s-36.3 323.8-81 323.8z" fill="" p-id="3000"></path><path d="M378.1 155C231 155 118.2 319 118.2 516.1S231 877.2 378.1 877.2c147.1 0 259.9-164 259.9-361.1S525.2 155 378.1 155z m0 684.9c-123 0-222.6-145-222.6-323.8s99.7-323.8 222.6-323.8c123 0 222.6 145 222.6 323.8s-99.6 323.8-222.6 323.8z" fill="" p-id="3001"></path><path d="M962.6 589.8H476.9c-6.5 0-12.1 5.7-12.1 12.1 0 143.3 111.7 255 255 255 142.5 0 255-111.7 255-255 0-6.5-5.7-12.1-12.2-12.1z" fill="#91DC5A" p-id="3002"></path><path d="M908.1 594.6H531c-6 0-11.2 5.2-11.2 11.2 0 110.2 90 200.1 200.1 200.1s199.4-90 199.4-200.1c0-5.9-5.2-11.2-11.2-11.2z" fill="" p-id="3003"></path><path d="M719.9 806c110.2 0 199.4-90 199.4-200.1 0-6-5.2-11.2-11.2-11.2H531c-6 0-11.2 5.2-11.2 11.2 0 110.2 89.9 200.1 200.1 200.1z" fill="#FF505D" p-id="3004"></path><path d="M719.9 806c110.2 0 224.8-104.4 212.7-222.9-33.4-16-5.4 143-212.7 222.9z" fill="#E21220" p-id="3005"></path><path d="M962.6 557.4H476.9c-27 0-49.4 22.2-49.4 49.1 0 162.9 128.4 290.5 292.3 290.5 163.3 0 292.3-127.9 292.3-290.5-0.1-26.9-22.4-49.1-49.5-49.1zM719.7 860c-143.3 0-255-111.1-255-253.5 0-6.4 5.7-12.1 12.1-12.1h485.7c6.5 0 12.1 5.6 12.1 12.1 0.2 142.4-112.4 253.5-254.9 253.5z" fill="" p-id="3006"></path><path d="M790.2 759.8c5.7-4 7.3-12.1 3.2-17.8l-21.9-32.4-1.6 38.9c0 2.4 0.8 5.7 2.4 8.1 4.1 5.6 12.2 7.2 17.9 3.2zM739.2 759.8c5.7-4 7.3-12.1 3.2-17.8l-21.9-32.4-1.6 38.9c0 2.4 0.8 5.7 2.4 8.1 4.1 5.6 12.2 7.2 17.9 3.2zM683.2 759.8c5.7-4 7.3-12.1 3.2-17.8l-21.9-32.4-1.6 38.9c0 2.4 0.8 5.7 2.4 8.1 4.1 5.6 12.2 7.2 17.9 3.2zM816.2 697.8c5.7-4 7.3-12.1 3.2-17.8l-21.9-32.4-1.6 38.9c0 2.4 0.8 5.7 2.4 8.1 4.1 5.6 12.2 7.2 17.9 3.2zM765.2 697.8c5.7-4 7.3-12.1 3.2-17.8l-21.9-32.4-1.6 38.9c0 2.4 0.8 5.7 2.4 8.1 4.1 5.6 12.2 7.2 17.9 3.2zM709.2 697.8c5.7-4 7.3-12.1 3.2-17.8l-21.9-32.4-1.6 38.9c0 2.4 0.8 5.7 2.4 8.1 4.1 5.6 12.2 7.2 17.9 3.2zM647.2 697.8c5.7-4 7.3-12.1 3.2-17.8l-21.9-32.4-1.6 38.9c0 2.4 0.8 5.7 2.4 8.1 4.1 5.6 12.2 7.2 17.9 3.2z" fill="" p-id="3007"></path></svg>